<svg width="132" height="22" viewBox="0 0 132 22" fill="none" xmlns="http://www.w3.org/2000/svg">
<path fill-rule="evenodd" clip-rule="evenodd" d="M10.046 10.7607C10.9832 10.7607 11.256 10.2063 11.256 9.75248C11.256 9.39991 11.055 8.78332 10.2715 8.78332H9.20347V10.7607H10.046ZM14.4 15.8889H11.9443L10.1289 12.1337H9.20347V14.44H10.2123V15.8889H6V14.44H7.10395V8.78332H6V7.33333H11.0187C12.5852 7.33333 13.4389 8.42962 13.4389 9.72728C13.4389 10.7105 12.9884 11.4027 12.0512 11.8565L13.3559 14.44H14.4V15.8889Z" fill="#AB1725"/>
<path fill-rule="evenodd" clip-rule="evenodd" d="M18 14.44H18.9652V8.78332H18V7.33333H25.2V10.0415H23.6444V8.78332H21.0992V10.7473H23.1496V12.1977H21.0992V14.44H23.6444V13.1671H25.2V15.8889H18V14.44Z" fill="#AB1725"/>
<path fill-rule="evenodd" clip-rule="evenodd" d="M31.5986 14.44C33.1542 14.44 33.88 13.3435 33.88 11.6424C33.88 9.80265 33.0508 8.78332 31.5293 8.78332H30.8265V14.44H31.5986ZM27.6001 14.44H28.7868V8.78332H27.6001V7.33333H31.6904C33.1081 7.33333 34.0874 7.62301 34.8821 8.49296C35.6658 9.34951 36.0001 10.4578 36.0001 11.6297C36.0001 13.8473 34.7443 15.8889 32.2557 15.8889H27.6001V14.44Z" fill="#AB1725"/>
<path fill-rule="evenodd" clip-rule="evenodd" d="M45.3632 8.77255H44.3999V7.33333H48.4435V8.77255H47.5052L48.8647 13.0242H48.8886L50.2603 8.77255H49.3577V7.33333H52.7999V8.77255H51.8369L49.4659 15.8889H47.8178L45.3632 8.77255Z" fill="black"/>
<path fill-rule="evenodd" clip-rule="evenodd" d="M55.2 14.44H56.1644V8.78332H55.2V7.33333H62.4V10.0415H60.8445V8.78332H58.299V10.7473H60.3492V12.1977H58.299V14.44H60.8445V13.1671H62.4V15.8889H55.2V14.44Z" fill="black"/>
<path fill-rule="evenodd" clip-rule="evenodd" d="M64.8 14.44H65.9614V8.78332H64.8V7.33333H68.4266L71.605 12.6758H71.6294V8.78332H70.5071V7.33333H74.4V8.78332H73.1752V15.8889H71.234L67.5318 9.60105H67.5065V14.44H68.5915V15.8889H64.8V14.44Z" fill="black"/>
<path fill-rule="evenodd" clip-rule="evenodd" d="M84 10.773H82.6227V8.78313H81.4328V14.44H82.6227V15.8889H78.1769V14.44H79.3667V8.78313H78.1769V10.773H76.8V7.33333H84V10.773Z" fill="black"/>
<path fill-rule="evenodd" clip-rule="evenodd" d="M87.6001 7.33333H91.1278V8.76629H90.4683V13.0616C90.4683 13.8965 90.6925 14.4564 91.451 14.4564C92.0882 14.4564 92.5015 14.096 92.5015 13.137V8.76629H91.8752V7.33333H94.8001V8.76629H93.8522V13.4973C93.8522 15.465 92.3111 15.8889 91.239 15.8889C89.7544 15.8889 88.4929 15.2548 88.4929 13.187V8.76629H87.6001V7.33333Z" fill="black"/>
<path fill-rule="evenodd" clip-rule="evenodd" d="M102.446 10.7607C103.383 10.7607 103.655 10.2063 103.655 9.75248C103.655 9.39991 103.454 8.78332 102.671 8.78332H101.603V10.7607H102.446ZM106.8 15.8889H104.344L102.528 12.1337H101.603V14.44H102.611V15.8889H98.3999V14.44H99.503V8.78332H98.3999V7.33333H103.419C104.984 7.33333 105.839 8.42962 105.839 9.72728C105.839 10.7105 105.388 11.4027 104.451 11.8565L105.756 14.44H106.8V15.8889Z" fill="black"/>
<path fill-rule="evenodd" clip-rule="evenodd" d="M109.2 14.44H110.165V8.78332H109.2V7.33333H116.4V10.0415H114.844V8.78332H112.3V10.7473H114.349V12.1977H112.3V14.44H114.844V13.1671H116.4V15.8889H109.2V14.44Z" fill="black"/>
<path fill-rule="evenodd" clip-rule="evenodd" d="M120.092 12.934H121.601C121.575 13.8329 122.192 14.4492 122.967 14.4492C123.505 14.4492 123.951 14.0547 123.951 13.5503C123.951 12.0235 120 12.2329 120 9.61156C120 7.98628 121.299 7.33333 122.402 7.33333C123.098 7.33333 123.662 7.59194 124.03 8.11004H124.056V7.42005H125.552V9.956H124.056C123.938 9.19282 123.452 8.72462 122.771 8.72462C122.258 8.72462 121.89 9.00807 121.89 9.40197C121.89 10.7553 126 10.4475 126 13.4015C126 15.3965 124.359 15.8889 123.413 15.8889C122.625 15.8889 122.022 15.6174 121.628 15.0778H121.601V15.7782H120.092V12.934Z" fill="black"/>
<mask id="mask0" mask-type="alpha" maskUnits="userSpaceOnUse" x="0" y="0" width="132" height="22">
<path fill-rule="evenodd" clip-rule="evenodd" d="M0 22H132V0H0V22Z" fill="white"/>
</mask>
<g mask="url(#mask0)">
<path fill-rule="evenodd" clip-rule="evenodd" d="M39.6001 18.3333H40.2001V2.44444H39.6001V18.3333Z" fill="black"/>
</g>
</svg>
