<svg width="18" height="20" viewBox="0 0 18 20" fill="none" xmlns="http://www.w3.org/2000/svg">
<path d="M16.313 10.7244C16.313 11.7068 16.1197 12.6597 15.7385 13.5566C15.3701 14.4229 14.8428 15.2012 14.171 15.8695C13.4994 16.5379 12.7172 17.0626 11.8464 17.429C10.945 17.8083 9.98737 18.0007 8.99995 18.0007C8.01254 18.0007 7.0549 17.8083 6.15348 17.429C5.28271 17.0626 4.50064 16.5379 3.82887 15.8695C3.1572 15.2012 2.62982 14.4229 2.26153 13.5566C1.88033 12.6598 1.68701 11.7069 1.68701 10.7244C1.68701 9.74194 1.88033 8.7891 2.26153 7.89231C2.62982 7.02585 3.1572 6.24769 3.82887 5.57932C4.50064 4.911 5.28271 4.38629 6.15348 4.01984C7.0549 3.64055 8.01254 3.44819 8.99995 3.44819C10.5117 3.44819 11.9788 3.9138 13.204 4.77081L10.766 5.98719C10.5789 6.01855 10.4528 6.19488 10.4844 6.381C10.5126 6.5479 10.658 6.66604 10.8227 6.66604C10.8416 6.66604 10.8608 6.66444 10.8802 6.66122L14.1133 5.31149C14.3003 5.28015 14.4264 5.10381 14.3949 4.9177L13.2715 1.28504C13.2401 1.0989 13.0628 0.973476 12.8757 1.00479C12.6887 1.03615 12.5626 1.2125 12.5941 1.3986L13.5758 4.19491C12.24 3.26777 10.644 2.7646 8.99995 2.7646C7.92015 2.7646 6.87242 2.9751 5.88585 3.3903C4.9332 3.79125 4.07768 4.36512 3.34311 5.09602C2.60851 5.82684 2.03173 6.67813 1.62879 7.62598C1.21156 8.60752 1 9.65 1 10.7244C1 11.7988 1.21156 12.8412 1.62884 13.8228C2.03173 14.7707 2.60851 15.6219 3.34311 16.3528C4.0777 17.0837 4.93321 17.6576 5.88595 18.0585C6.87244 18.4737 7.92017 18.6842 8.99997 18.6842C10.0798 18.6842 11.1275 18.4737 12.1141 18.0585C13.0667 17.6576 13.9222 17.0837 14.6568 16.3528C15.3914 15.6219 15.9682 14.7707 16.3712 13.8228C16.7884 12.8412 17 11.7988 17 10.7244C17 10.5356 16.8462 10.3826 16.6565 10.3826C16.4668 10.3826 16.313 10.5357 16.313 10.7244Z" fill="#AB1725" stroke="#AB1725"/>
</svg>
